<mxfile host="app.diagrams.net" agent="Mozilla/5.0 (Windows NT 10.0; Win64; x64) AppleWebKit/537.36 (KHTML, like Gecko) Chrome/135.0.0.0 Safari/537.36" version="26.2.14">
  <diagram name="Página-1" id="LGixri6_6vdK695f-0r9">
    <mxGraphModel grid="0" page="1" gridSize="10" guides="1" tooltips="1" connect="1" arrows="1" fold="1" pageScale="1" pageWidth="827" pageHeight="1169" background="none" math="0" shadow="0">
      <root>
        <mxCell id="0" />
        <mxCell id="1" parent="0" />
        <object label="Actor" id="8rCbv8XQy2G4jj8nVuq--5">
          <mxCell style="shape=umlActor;verticalLabelPosition=bottom;verticalAlign=top;html=1;outlineConnect=0;" vertex="1" parent="1">
            <mxGeometry x="100" y="230" width="30" height="60" as="geometry" />
          </mxCell>
        </object>
        <mxCell id="8rCbv8XQy2G4jj8nVuq--17" value="" style="ellipse;whiteSpace=wrap;html=1;" vertex="1" parent="1">
          <mxGeometry x="330" y="210" width="120" height="80" as="geometry" />
        </mxCell>
        <mxCell id="8rCbv8XQy2G4jj8nVuq--19" value="" style="ellipse;whiteSpace=wrap;html=1;" vertex="1" parent="1">
          <mxGeometry x="230" y="360" width="120" height="80" as="geometry" />
        </mxCell>
        <mxCell id="8rCbv8XQy2G4jj8nVuq--20" value="" style="ellipse;whiteSpace=wrap;html=1;" vertex="1" parent="1">
          <mxGeometry x="354" y="50" width="120" height="80" as="geometry" />
        </mxCell>
        <mxCell id="8rCbv8XQy2G4jj8nVuq--21" value="Preencher nome de usuário, email institucional e senha" style="text;strokeColor=none;align=center;fillColor=none;html=1;verticalAlign=middle;whiteSpace=wrap;rounded=0;" vertex="1" parent="1">
          <mxGeometry x="364" y="90" width="100" height="15" as="geometry" />
        </mxCell>
        <mxCell id="8rCbv8XQy2G4jj8nVuq--22" value="Validar Formato de email institucional&amp;nbsp;" style="text;strokeColor=none;align=center;fillColor=none;html=1;verticalAlign=middle;whiteSpace=wrap;rounded=0;" vertex="1" parent="1">
          <mxGeometry x="339.5" y="237.5" width="101" height="25" as="geometry" />
        </mxCell>
        <mxCell id="8rCbv8XQy2G4jj8nVuq--23" value="Verificar matrícula&amp;nbsp;" style="text;strokeColor=none;align=center;fillColor=none;html=1;verticalAlign=middle;whiteSpace=wrap;rounded=0;" vertex="1" parent="1">
          <mxGeometry x="260" y="385" width="60" height="30" as="geometry" />
        </mxCell>
        <mxCell id="8rCbv8XQy2G4jj8nVuq--24" value="" style="ellipse;whiteSpace=wrap;html=1;" vertex="1" parent="1">
          <mxGeometry x="310" y="570" width="120" height="80" as="geometry" />
        </mxCell>
        <mxCell id="8rCbv8XQy2G4jj8nVuq--25" value="Criar conta no sistema" style="text;strokeColor=none;align=center;fillColor=none;html=1;verticalAlign=middle;whiteSpace=wrap;rounded=0;" vertex="1" parent="1">
          <mxGeometry x="315" y="595" width="110" height="30" as="geometry" />
        </mxCell>
        <mxCell id="8rCbv8XQy2G4jj8nVuq--29" value="" style="endArrow=none;html=1;rounded=0;entryX=0.075;entryY=0.804;entryDx=0;entryDy=0;entryPerimeter=0;exitX=0.606;exitY=0.005;exitDx=0;exitDy=0;exitPerimeter=0;" edge="1" parent="1" source="8rCbv8XQy2G4jj8nVuq--19" target="8rCbv8XQy2G4jj8nVuq--17">
          <mxGeometry width="50" height="50" relative="1" as="geometry">
            <mxPoint x="310" y="350" as="sourcePoint" />
            <mxPoint x="360" y="300" as="targetPoint" />
          </mxGeometry>
        </mxCell>
        <mxCell id="8rCbv8XQy2G4jj8nVuq--30" value="" style="endArrow=none;html=1;rounded=0;exitX=0.333;exitY=0;exitDx=0;exitDy=0;exitPerimeter=0;entryX=0.328;entryY=0.993;entryDx=0;entryDy=0;entryPerimeter=0;" edge="1" parent="1" source="8rCbv8XQy2G4jj8nVuq--17" target="8rCbv8XQy2G4jj8nVuq--20">
          <mxGeometry width="50" height="50" relative="1" as="geometry">
            <mxPoint x="350" y="170" as="sourcePoint" />
            <mxPoint x="400" y="120" as="targetPoint" />
          </mxGeometry>
        </mxCell>
        <mxCell id="8rCbv8XQy2G4jj8nVuq--31" value="" style="endArrow=none;html=1;rounded=0;exitX=0.621;exitY=0.944;exitDx=0;exitDy=0;exitPerimeter=0;entryX=0.302;entryY=0.051;entryDx=0;entryDy=0;entryPerimeter=0;" edge="1" parent="1" source="8rCbv8XQy2G4jj8nVuq--19" target="8rCbv8XQy2G4jj8nVuq--24">
          <mxGeometry width="50" height="50" relative="1" as="geometry">
            <mxPoint x="390" y="390" as="sourcePoint" />
            <mxPoint x="440" y="340" as="targetPoint" />
          </mxGeometry>
        </mxCell>
        <mxCell id="8rCbv8XQy2G4jj8nVuq--33" value="" style="ellipse;whiteSpace=wrap;html=1;" vertex="1" parent="1">
          <mxGeometry x="140" y="57.5" width="120" height="80" as="geometry" />
        </mxCell>
        <mxCell id="8rCbv8XQy2G4jj8nVuq--34" value="Acessar página de cadastro" style="text;strokeColor=none;align=center;fillColor=none;html=1;verticalAlign=middle;whiteSpace=wrap;rounded=0;" vertex="1" parent="1">
          <mxGeometry x="150" y="82.5" width="100" height="30" as="geometry" />
        </mxCell>
        <mxCell id="8rCbv8XQy2G4jj8nVuq--35" value="" style="endArrow=classic;html=1;rounded=0;exitX=1;exitY=0.3333333333333333;exitDx=0;exitDy=0;exitPerimeter=0;entryX=0.307;entryY=0.944;entryDx=0;entryDy=0;entryPerimeter=0;" edge="1" parent="1" source="8rCbv8XQy2G4jj8nVuq--5" target="8rCbv8XQy2G4jj8nVuq--33">
          <mxGeometry width="50" height="50" relative="1" as="geometry">
            <mxPoint x="140" y="220" as="sourcePoint" />
            <mxPoint x="190" y="170" as="targetPoint" />
          </mxGeometry>
        </mxCell>
        <mxCell id="8rCbv8XQy2G4jj8nVuq--36" value="" style="endArrow=classic;html=1;rounded=0;exitX=0.971;exitY=0.412;exitDx=0;exitDy=0;exitPerimeter=0;entryX=0.018;entryY=0.631;entryDx=0;entryDy=0;entryPerimeter=0;" edge="1" parent="1" source="8rCbv8XQy2G4jj8nVuq--33" target="8rCbv8XQy2G4jj8nVuq--20">
          <mxGeometry width="50" height="50" relative="1" as="geometry">
            <mxPoint x="289.5" y="137.5" as="sourcePoint" />
            <mxPoint x="339.5" y="87.5" as="targetPoint" />
          </mxGeometry>
        </mxCell>
        <mxCell id="8rCbv8XQy2G4jj8nVuq--37" value="" style="ellipse;whiteSpace=wrap;html=1;" vertex="1" parent="1">
          <mxGeometry x="530" y="300" width="120" height="80" as="geometry" />
        </mxCell>
        <mxCell id="8rCbv8XQy2G4jj8nVuq--38" value="" style="endArrow=none;dashed=1;html=1;dashPattern=1 3;strokeWidth=2;rounded=0;entryX=0.928;entryY=0.816;entryDx=0;entryDy=0;entryPerimeter=0;" edge="1" parent="1" source="8rCbv8XQy2G4jj8nVuq--37" target="8rCbv8XQy2G4jj8nVuq--17">
          <mxGeometry width="50" height="50" relative="1" as="geometry">
            <mxPoint x="390" y="380" as="sourcePoint" />
            <mxPoint x="440" y="330" as="targetPoint" />
          </mxGeometry>
        </mxCell>
        <mxCell id="8rCbv8XQy2G4jj8nVuq--39" value="&amp;lt;&amp;lt;extend&amp;gt;&amp;gt;" style="text;strokeColor=none;align=center;fillColor=none;html=1;verticalAlign=middle;whiteSpace=wrap;rounded=0;" vertex="1" parent="1">
          <mxGeometry x="480" y="260" width="60" height="30" as="geometry" />
        </mxCell>
        <mxCell id="8rCbv8XQy2G4jj8nVuq--40" value="Exibir mensagem de erro. E-mail inválido&amp;nbsp;" style="text;strokeColor=none;align=center;fillColor=none;html=1;verticalAlign=middle;whiteSpace=wrap;rounded=0;" vertex="1" parent="1">
          <mxGeometry x="535" y="330" width="110" height="30" as="geometry" />
        </mxCell>
        <mxCell id="8rCbv8XQy2G4jj8nVuq--41" value="" style="ellipse;whiteSpace=wrap;html=1;" vertex="1" parent="1">
          <mxGeometry x="490" y="440" width="130" height="90" as="geometry" />
        </mxCell>
        <mxCell id="8rCbv8XQy2G4jj8nVuq--42" value="Exibir mensagem de erro. N de matricula já cadastrado" style="text;strokeColor=none;align=center;fillColor=none;html=1;verticalAlign=middle;whiteSpace=wrap;rounded=0;" vertex="1" parent="1">
          <mxGeometry x="497.5" y="470" width="115" height="30" as="geometry" />
        </mxCell>
        <mxCell id="8rCbv8XQy2G4jj8nVuq--43" value="" style="endArrow=none;dashed=1;html=1;dashPattern=1 3;strokeWidth=2;rounded=0;entryX=0.991;entryY=0.673;entryDx=0;entryDy=0;entryPerimeter=0;exitX=-0.012;exitY=0.383;exitDx=0;exitDy=0;exitPerimeter=0;" edge="1" parent="1" source="8rCbv8XQy2G4jj8nVuq--41" target="8rCbv8XQy2G4jj8nVuq--19">
          <mxGeometry width="50" height="50" relative="1" as="geometry">
            <mxPoint x="474" y="470" as="sourcePoint" />
            <mxPoint x="375" y="427" as="targetPoint" />
          </mxGeometry>
        </mxCell>
        <mxCell id="8rCbv8XQy2G4jj8nVuq--44" value="&amp;lt;&amp;lt;extend&amp;gt;&amp;gt;" style="text;strokeColor=none;align=center;fillColor=none;html=1;verticalAlign=middle;whiteSpace=wrap;rounded=0;" vertex="1" parent="1">
          <mxGeometry x="404" y="410" width="60" height="30" as="geometry" />
        </mxCell>
      </root>
    </mxGraphModel>
  </diagram>
</mxfile>
